<?xml version="1.0" encoding="UTF-8" standalone="no"?>
<!-- Created with Inkscape (http://www.inkscape.org/) -->

<svg
   width="98.61554mm"
   height="93.84832mm"
   viewBox="0 0 98.615544 93.84832"
   version="1.1"
   id="svg5"
   inkscape:export-filename="blueGhost.png"
   inkscape:export-xdpi="96"
   inkscape:export-ydpi="96"
   inkscape:version="1.2.2 (b0a8486541, 2022-12-01)"
   sodipodi:docname="overlyenthusiasticcustomerservicerepghost.svg"
   xmlns:inkscape="http://www.inkscape.org/namespaces/inkscape"
   xmlns:sodipodi="http://sodipodi.sourceforge.net/DTD/sodipodi-0.dtd"
   xmlns="http://www.w3.org/2000/svg"
   xmlns:svg="http://www.w3.org/2000/svg">
  <sodipodi:namedview
     id="namedview7"
     pagecolor="#ffffff"
     bordercolor="#000000"
     borderopacity="0.25"
     inkscape:showpageshadow="2"
     inkscape:pageopacity="0.0"
     inkscape:pagecheckerboard="0"
     inkscape:deskcolor="#d1d1d1"
     inkscape:document-units="mm"
     showgrid="false"
     inkscape:zoom="0.64882602"
     inkscape:cx="-0.77062261"
     inkscape:cy="114.05215"
     inkscape:window-width="1920"
     inkscape:window-height="1004"
     inkscape:window-x="1920"
     inkscape:window-y="0"
     inkscape:window-maximized="1"
     inkscape:current-layer="layer1" />
  <defs
     id="defs2">
    <inkscape:path-effect
       effect="spiro"
       id="path-effect1466"
       is_visible="true"
       lpeversion="1" />
    <inkscape:path-effect
       effect="spiro"
       id="path-effect1462"
       is_visible="true"
       lpeversion="1" />
  </defs>
  <g
     inkscape:label="Layer 1"
     inkscape:groupmode="layer"
     id="layer1"
     transform="translate(-91.477333,-119.80357)">
    <path
       id="path338"
       style="fill:#ffcc00;stroke-width:1.065"
       d="m 190.09287,210.70959 c 0,12.38107 -10.53514,-18.3113 -17.29799,-18.39819 -5.41147,-0.0695 -5.17972,20.00079 -11.72456,15.77683 -7.37757,-4.76139 -11.54902,-14.96823 -19.56847,-16.49661 -4.22195,-0.80463 -6.71488,21.7131 -10.80898,21.7131 -13.61827,0 -12.11379,-18.06196 -21.07663,-23.08136 -9.06461,-5.07639 -18.138905,36.22788 -18.138907,16.44934 -3e-6,-39.33501 22.781637,-79.29612 50.172817,-79.29612 27.39118,-1e-5 48.44272,43.998 48.44272,83.33301 z"
       sodipodi:nodetypes="sssssssss" />
    <circle
       style="fill:#000000;stroke:none;stroke-width:1.065"
       id="path993"
       cx="125.79092"
       cy="147.27267"
       r="7.2087374" />
    <circle
       style="fill:#000000;stroke:none;stroke-width:1.065"
       id="path993-3"
       cx="154.33754"
       cy="146.98433"
       r="7.2087374" />
    <path
       style="fill:#000000;fill-opacity:1;stroke:#000000;stroke-width:1.765;stroke-dasharray:none;stroke-opacity:1"
       d="m 107.46799,160.09364 c 7.10738,10.30167 13.62376,18.422 25.37476,23.64466 0.78559,0.34916 1.53786,0.76894 2.30679,1.1534 0.76894,0.5767 1.5964,0.19469 2.45608,0.62454 0.75906,0.37953 4.7103,0.0397 5.8216,-0.23814 2.96008,-0.74002 5.05415,-2.05536 7.2932,-3.84659 1.58055,-1.26444 3.78302,-2.05293 5.19029,-3.46019 0.30395,-0.30395 1.2007,-0.75365 1.50465,-1.05759 0.7926,-0.7926 1.08027,-1.12569 1.95554,-1.82591 2.91907,-2.33525 7.64294,-8.36548 9.22719,-11.53398 0.59439,-1.18878 2.55245,-3.32921 2.55245,-4.81757"
       id="path1200"
       sodipodi:nodetypes="cscsssscssc" />
    <path
       id="rect1108"
       style="fill:#ffffff;stroke-width:3.06501"
       d="m 154.62598,159.02311 10.43317,-0.15526 c 0,0 -2.07291,11.83459 -4.74803,11.91609 -2.62666,0.08 -5.68514,-11.7608 -5.68514,-11.7608 z"
       sodipodi:nodetypes="ccsc" />
    <path
       id="rect1108-3"
       style="fill:#ffffff;stroke-width:3.06501"
       d="m 144.18792,159.27148 10.43123,-0.25458 c 0,0 -1.9602,11.85379 -4.63442,11.96074 -2.62577,0.10499 -5.79681,-11.70616 -5.79681,-11.70616 z"
       sodipodi:nodetypes="ccsc" />
    <path
       id="rect1108-6"
       style="fill:#ffffff;stroke-width:3.06501"
       d="m 134.0866,159.3597 10.43407,-0.0756 c 0,0 -2.16323,11.81842 -4.83889,11.87949 -2.62719,0.0599 -5.59518,-11.80386 -5.59518,-11.80386 z"
       sodipodi:nodetypes="ccsc" />
    <path
       id="rect1108-3-7"
       style="fill:#ffffff;stroke-width:3.06501"
       d="m 123.93005,159.53942 10.43123,-0.25458 c 0,0 -1.9602,11.85379 -4.63442,11.96074 -2.62577,0.10499 -5.79681,-11.70616 -5.79681,-11.70616 z"
       sodipodi:nodetypes="ccsc" />
    <path
       id="rect1108-3-7-5"
       style="fill:#ffffff;stroke-width:3.06501"
       d="m 113.70949,159.89472 10.43123,-0.25458 c 0,0 -1.9602,11.85379 -4.63442,11.96074 -2.62577,0.10499 -5.79681,-11.70616 -5.79681,-11.70616 z"
       sodipodi:nodetypes="ccsc" />
    <ellipse
       style="fill:#333333;fill-opacity:1;stroke:none;stroke-width:3.06501"
       id="path1354"
       cx="107.44098"
       cy="145.75606"
       rx="7.7536302"
       ry="13.515536" />
    <ellipse
       style="fill:#333333;fill-opacity:1;stroke:none;stroke-width:3.06501"
       id="path1354-3"
       cx="172.92636"
       cy="145.04631"
       rx="7.7536302"
       ry="13.515536" />
    <path
       style="fill:none;stroke:#333333;stroke-width:4.565;stroke-linecap:butt;stroke-linejoin:miter;stroke-dasharray:none;stroke-opacity:1"
       d="m 107.16506,146.56929 c 2.21419,-7.08591 6.75772,-13.42285 12.75817,-17.79405 6.00046,-4.37119 13.42527,-6.75292 20.84878,-6.68786 7.19626,0.0631 14.35513,2.42089 20.18041,6.64654 5.82529,4.22565 10.28902,10.29886 12.58299,17.11999"
       id="path1460"
       inkscape:path-effect="#path-effect1462"
       inkscape:original-d="m 107.16506,146.56929 c 11.27684,-8.13117 22.4049,-16.32101 33.60695,-24.48191 11.20206,-8.16091 21.84254,15.84462 32.7634,23.76653" />
    <path
       style="fill:none;stroke:#333333;stroke-width:2.965;stroke-linecap:butt;stroke-linejoin:miter;stroke-dasharray:none;stroke-opacity:1"
       d="m 175.74879,151.79456 c -1.33919,3.82191 -4.0386,7.15151 -7.50096,9.2521 -2.56014,1.55322 -5.5211,2.4394 -8.51359,2.54802"
       id="path1464"
       inkscape:path-effect="#path-effect1466"
       inkscape:original-d="m 175.74879,151.79456 c -2.49133,3.03032 -5.00042,6.16837 -7.50096,9.2521 -2.50055,3.08373 -5.67551,1.69898 -8.51359,2.54802" />
    <ellipse
       style="fill:#1a1a1a;fill-opacity:1;stroke:none;stroke-width:3.02731;stroke-dasharray:none;stroke-opacity:1"
       id="path1676"
       cx="158.01892"
       cy="163.4917"
       rx="4.986042"
       ry="3.2542195" />
  </g>
</svg>
